<mxfile host="app.diagrams.net" agent="Mozilla/5.0 (Windows NT 10.0; Win64; x64) AppleWebKit/537.36 (KHTML, like Gecko) Chrome/129.0.0.0 Safari/537.36" version="24.7.17">
  <diagram name="1 oldal" id="2qY-5DJ4luqoymaEtn0h">
    <mxGraphModel dx="2405" dy="1891" grid="1" gridSize="10" guides="1" tooltips="1" connect="1" arrows="1" fold="1" page="1" pageScale="1" pageWidth="827" pageHeight="1169" math="0" shadow="0">
      <root>
        <mxCell id="0" />
        <mxCell id="1" parent="0" />
        <mxCell id="ROAPfHrgWfZoaQifjzsi-6" value="" style="ellipse;whiteSpace=wrap;html=1;" parent="1" vertex="1">
          <mxGeometry x="350" y="210" width="120" height="80" as="geometry" />
        </mxCell>
        <mxCell id="ROAPfHrgWfZoaQifjzsi-7" value="Ã‰tterem" style="ellipse;whiteSpace=wrap;html=1;" parent="1" vertex="1">
          <mxGeometry x="360" y="217.5" width="100" height="65" as="geometry" />
        </mxCell>
        <mxCell id="ROAPfHrgWfZoaQifjzsi-8" value="&lt;u&gt;ekod&lt;/u&gt;" style="rhombus;whiteSpace=wrap;html=1;" parent="1" vertex="1">
          <mxGeometry x="130" y="260" width="80" height="80" as="geometry" />
        </mxCell>
        <mxCell id="ROAPfHrgWfZoaQifjzsi-9" value="" style="endArrow=none;html=1;rounded=0;exitX=1;exitY=0.5;exitDx=0;exitDy=0;entryX=0;entryY=0.5;entryDx=0;entryDy=0;" parent="1" source="ROAPfHrgWfZoaQifjzsi-8" target="ROAPfHrgWfZoaQifjzsi-6" edge="1">
          <mxGeometry width="50" height="50" relative="1" as="geometry">
            <mxPoint x="380" y="430" as="sourcePoint" />
            <mxPoint x="430" y="380" as="targetPoint" />
          </mxGeometry>
        </mxCell>
        <mxCell id="ROAPfHrgWfZoaQifjzsi-10" value="csillag" style="ellipse;whiteSpace=wrap;html=1;" parent="1" vertex="1">
          <mxGeometry x="610" y="360" width="120" height="80" as="geometry" />
        </mxCell>
        <mxCell id="ROAPfHrgWfZoaQifjzsi-11" value="cim" style="ellipse;whiteSpace=wrap;html=1;" parent="1" vertex="1">
          <mxGeometry x="350" y="360" width="120" height="80" as="geometry" />
        </mxCell>
        <mxCell id="ROAPfHrgWfZoaQifjzsi-12" value="nev" style="ellipse;whiteSpace=wrap;html=1;" parent="1" vertex="1">
          <mxGeometry x="90" y="360" width="120" height="80" as="geometry" />
        </mxCell>
        <mxCell id="ROAPfHrgWfZoaQifjzsi-13" value="" style="rounded=0;whiteSpace=wrap;html=1;direction=south;" parent="1" vertex="1">
          <mxGeometry x="120" y="464.5" width="60" height="120" as="geometry" />
        </mxCell>
        <mxCell id="ROAPfHrgWfZoaQifjzsi-14" value="" style="rounded=0;whiteSpace=wrap;html=1;direction=south;" parent="1" vertex="1">
          <mxGeometry x="640" y="460" width="60" height="120" as="geometry" />
        </mxCell>
        <mxCell id="ROAPfHrgWfZoaQifjzsi-16" value="" style="endArrow=none;html=1;rounded=0;exitX=0;exitY=0.5;exitDx=0;exitDy=0;entryX=0.5;entryY=1;entryDx=0;entryDy=0;" parent="1" source="ROAPfHrgWfZoaQifjzsi-13" target="ROAPfHrgWfZoaQifjzsi-12" edge="1">
          <mxGeometry width="50" height="50" relative="1" as="geometry">
            <mxPoint x="380" y="430" as="sourcePoint" />
            <mxPoint x="430" y="380" as="targetPoint" />
          </mxGeometry>
        </mxCell>
        <mxCell id="ROAPfHrgWfZoaQifjzsi-18" value="" style="endArrow=none;html=1;rounded=0;exitX=0;exitY=0.5;exitDx=0;exitDy=0;entryX=0.5;entryY=1;entryDx=0;entryDy=0;" parent="1" source="ROAPfHrgWfZoaQifjzsi-14" target="ROAPfHrgWfZoaQifjzsi-10" edge="1">
          <mxGeometry width="50" height="50" relative="1" as="geometry">
            <mxPoint x="380" y="430" as="sourcePoint" />
            <mxPoint x="430" y="380" as="targetPoint" />
          </mxGeometry>
        </mxCell>
        <mxCell id="ROAPfHrgWfZoaQifjzsi-19" value="hazszam" style="ellipse;whiteSpace=wrap;html=1;" parent="1" vertex="1">
          <mxGeometry x="510" y="545" width="120" height="80" as="geometry" />
        </mxCell>
        <mxCell id="ROAPfHrgWfZoaQifjzsi-20" value="utca" style="ellipse;whiteSpace=wrap;html=1;" parent="1" vertex="1">
          <mxGeometry x="350" y="545" width="120" height="80" as="geometry" />
        </mxCell>
        <mxCell id="ROAPfHrgWfZoaQifjzsi-21" value="varos" style="ellipse;whiteSpace=wrap;html=1;" parent="1" vertex="1">
          <mxGeometry x="190" y="545" width="120" height="80" as="geometry" />
        </mxCell>
        <mxCell id="ROAPfHrgWfZoaQifjzsi-23" value="" style="rounded=0;whiteSpace=wrap;html=1;direction=south;" parent="1" vertex="1">
          <mxGeometry x="540" y="660" width="60" height="120" as="geometry" />
        </mxCell>
        <mxCell id="ROAPfHrgWfZoaQifjzsi-24" value="" style="rounded=0;whiteSpace=wrap;html=1;direction=south;" parent="1" vertex="1">
          <mxGeometry x="380" y="660" width="60" height="120" as="geometry" />
        </mxCell>
        <mxCell id="ROAPfHrgWfZoaQifjzsi-25" value="" style="rounded=0;whiteSpace=wrap;html=1;direction=south;" parent="1" vertex="1">
          <mxGeometry x="220" y="660" width="60" height="120" as="geometry" />
        </mxCell>
        <mxCell id="ROAPfHrgWfZoaQifjzsi-26" value="" style="endArrow=none;html=1;rounded=0;exitX=0;exitY=0.5;exitDx=0;exitDy=0;entryX=0.5;entryY=1;entryDx=0;entryDy=0;" parent="1" source="ROAPfHrgWfZoaQifjzsi-25" target="ROAPfHrgWfZoaQifjzsi-21" edge="1">
          <mxGeometry width="50" height="50" relative="1" as="geometry">
            <mxPoint x="410" y="550" as="sourcePoint" />
            <mxPoint x="460" y="500" as="targetPoint" />
          </mxGeometry>
        </mxCell>
        <mxCell id="ROAPfHrgWfZoaQifjzsi-27" value="" style="endArrow=none;html=1;rounded=0;exitX=0;exitY=0.5;exitDx=0;exitDy=0;entryX=0.5;entryY=1;entryDx=0;entryDy=0;" parent="1" source="ROAPfHrgWfZoaQifjzsi-24" target="ROAPfHrgWfZoaQifjzsi-20" edge="1">
          <mxGeometry width="50" height="50" relative="1" as="geometry">
            <mxPoint x="410" y="550" as="sourcePoint" />
            <mxPoint x="460" y="500" as="targetPoint" />
          </mxGeometry>
        </mxCell>
        <mxCell id="ROAPfHrgWfZoaQifjzsi-28" value="" style="endArrow=none;html=1;rounded=0;exitX=0;exitY=0.5;exitDx=0;exitDy=0;entryX=0.5;entryY=1;entryDx=0;entryDy=0;" parent="1" source="ROAPfHrgWfZoaQifjzsi-23" target="ROAPfHrgWfZoaQifjzsi-19" edge="1">
          <mxGeometry width="50" height="50" relative="1" as="geometry">
            <mxPoint x="410" y="550" as="sourcePoint" />
            <mxPoint x="460" y="500" as="targetPoint" />
          </mxGeometry>
        </mxCell>
        <mxCell id="ROAPfHrgWfZoaQifjzsi-29" value="" style="endArrow=none;html=1;rounded=0;exitX=0.5;exitY=0;exitDx=0;exitDy=0;entryX=0.5;entryY=1;entryDx=0;entryDy=0;" parent="1" source="ROAPfHrgWfZoaQifjzsi-21" target="ROAPfHrgWfZoaQifjzsi-11" edge="1">
          <mxGeometry width="50" height="50" relative="1" as="geometry">
            <mxPoint x="410" y="550" as="sourcePoint" />
            <mxPoint x="460" y="500" as="targetPoint" />
          </mxGeometry>
        </mxCell>
        <mxCell id="ROAPfHrgWfZoaQifjzsi-30" value="" style="endArrow=none;html=1;rounded=0;exitX=0.5;exitY=0;exitDx=0;exitDy=0;entryX=0.5;entryY=1;entryDx=0;entryDy=0;" parent="1" source="ROAPfHrgWfZoaQifjzsi-20" target="ROAPfHrgWfZoaQifjzsi-11" edge="1">
          <mxGeometry width="50" height="50" relative="1" as="geometry">
            <mxPoint x="410" y="550" as="sourcePoint" />
            <mxPoint x="460" y="500" as="targetPoint" />
          </mxGeometry>
        </mxCell>
        <mxCell id="ROAPfHrgWfZoaQifjzsi-31" value="" style="endArrow=none;html=1;rounded=0;entryX=0.5;entryY=1;entryDx=0;entryDy=0;exitX=0.5;exitY=0;exitDx=0;exitDy=0;" parent="1" source="ROAPfHrgWfZoaQifjzsi-19" target="ROAPfHrgWfZoaQifjzsi-11" edge="1">
          <mxGeometry width="50" height="50" relative="1" as="geometry">
            <mxPoint x="410" y="550" as="sourcePoint" />
            <mxPoint x="460" y="500" as="targetPoint" />
          </mxGeometry>
        </mxCell>
        <mxCell id="ROAPfHrgWfZoaQifjzsi-32" value="" style="endArrow=none;html=1;rounded=0;entryX=0.5;entryY=1;entryDx=0;entryDy=0;exitX=0.5;exitY=0;exitDx=0;exitDy=0;" parent="1" source="ROAPfHrgWfZoaQifjzsi-11" target="ROAPfHrgWfZoaQifjzsi-6" edge="1">
          <mxGeometry width="50" height="50" relative="1" as="geometry">
            <mxPoint x="360" y="510" as="sourcePoint" />
            <mxPoint x="410" y="460" as="targetPoint" />
          </mxGeometry>
        </mxCell>
        <mxCell id="ROAPfHrgWfZoaQifjzsi-33" value="" style="endArrow=none;html=1;rounded=0;exitX=0.5;exitY=0;exitDx=0;exitDy=0;entryX=0.5;entryY=1;entryDx=0;entryDy=0;" parent="1" source="ROAPfHrgWfZoaQifjzsi-12" target="ROAPfHrgWfZoaQifjzsi-6" edge="1">
          <mxGeometry width="50" height="50" relative="1" as="geometry">
            <mxPoint x="390" y="510" as="sourcePoint" />
            <mxPoint x="440" y="460" as="targetPoint" />
          </mxGeometry>
        </mxCell>
        <mxCell id="ROAPfHrgWfZoaQifjzsi-34" value="" style="endArrow=none;html=1;rounded=0;entryX=0.5;entryY=1;entryDx=0;entryDy=0;exitX=0.5;exitY=0;exitDx=0;exitDy=0;" parent="1" source="ROAPfHrgWfZoaQifjzsi-10" target="ROAPfHrgWfZoaQifjzsi-6" edge="1">
          <mxGeometry width="50" height="50" relative="1" as="geometry">
            <mxPoint x="390" y="510" as="sourcePoint" />
            <mxPoint x="440" y="460" as="targetPoint" />
          </mxGeometry>
        </mxCell>
        <mxCell id="ROAPfHrgWfZoaQifjzsi-45" value="" style="ellipse;whiteSpace=wrap;html=1;" parent="1" vertex="1">
          <mxGeometry x="2950" y="217.5" width="120" height="80" as="geometry" />
        </mxCell>
        <mxCell id="ROAPfHrgWfZoaQifjzsi-48" value="" style="endArrow=none;html=1;rounded=0;entryX=0.5;entryY=0;entryDx=0;entryDy=0;exitX=0;exitY=0.5;exitDx=0;exitDy=0;" parent="1" source="ROAPfHrgWfZoaQifjzsi-45" target="ROAPfHrgWfZoaQifjzsi-51" edge="1">
          <mxGeometry width="50" height="50" relative="1" as="geometry">
            <mxPoint x="2782" y="557.5" as="sourcePoint" />
            <mxPoint x="2932" y="472.5" as="targetPoint" />
          </mxGeometry>
        </mxCell>
        <mxCell id="ROAPfHrgWfZoaQifjzsi-49" value="" style="endArrow=none;html=1;rounded=0;entryX=1;entryY=0.5;entryDx=0;entryDy=0;exitX=0.5;exitY=0;exitDx=0;exitDy=0;" parent="1" source="ROAPfHrgWfZoaQifjzsi-50" target="ROAPfHrgWfZoaQifjzsi-45" edge="1">
          <mxGeometry width="50" height="50" relative="1" as="geometry">
            <mxPoint x="3082" y="472.5" as="sourcePoint" />
            <mxPoint x="2595" y="367.5" as="targetPoint" />
          </mxGeometry>
        </mxCell>
        <mxCell id="ROAPfHrgWfZoaQifjzsi-50" value="e_v_v" style="rhombus;whiteSpace=wrap;html=1;" parent="1" vertex="1">
          <mxGeometry x="3130" y="290" width="80" height="80" as="geometry" />
        </mxCell>
        <mxCell id="ROAPfHrgWfZoaQifjzsi-51" value="e_v_e" style="rhombus;whiteSpace=wrap;html=1;" parent="1" vertex="1">
          <mxGeometry x="2840" y="287.5" width="80" height="80" as="geometry" />
        </mxCell>
        <mxCell id="ROAPfHrgWfZoaQifjzsi-52" value="" style="endArrow=none;dashed=1;html=1;rounded=0;entryX=1;entryY=1;entryDx=0;entryDy=0;exitX=0;exitY=1;exitDx=0;exitDy=0;" parent="1" source="ROAPfHrgWfZoaQifjzsi-51" target="ROAPfHrgWfZoaQifjzsi-51" edge="1">
          <mxGeometry width="50" height="50" relative="1" as="geometry">
            <mxPoint x="2912" y="532.5" as="sourcePoint" />
            <mxPoint x="2952" y="532.5" as="targetPoint" />
          </mxGeometry>
        </mxCell>
        <mxCell id="ROAPfHrgWfZoaQifjzsi-53" value="" style="endArrow=none;dashed=1;html=1;rounded=0;entryX=1;entryY=1;entryDx=0;entryDy=0;exitX=0;exitY=1;exitDx=0;exitDy=0;" parent="1" source="ROAPfHrgWfZoaQifjzsi-50" target="ROAPfHrgWfZoaQifjzsi-50" edge="1">
          <mxGeometry width="50" height="50" relative="1" as="geometry">
            <mxPoint x="3150" y="447" as="sourcePoint" />
            <mxPoint x="3190" y="447" as="targetPoint" />
          </mxGeometry>
        </mxCell>
        <mxCell id="ROAPfHrgWfZoaQifjzsi-68" value="" style="ellipse;whiteSpace=wrap;html=1;" parent="1" vertex="1">
          <mxGeometry x="960" y="217.5" width="120" height="80" as="geometry" />
        </mxCell>
        <mxCell id="ROAPfHrgWfZoaQifjzsi-69" value="eletkor" style="ellipse;whiteSpace=wrap;html=1;" parent="1" vertex="1">
          <mxGeometry x="960" y="360" width="120" height="80" as="geometry" />
        </mxCell>
        <mxCell id="ROAPfHrgWfZoaQifjzsi-70" value="nev" style="ellipse;whiteSpace=wrap;html=1;" parent="1" vertex="1">
          <mxGeometry x="810" y="360" width="120" height="80" as="geometry" />
        </mxCell>
        <mxCell id="ROAPfHrgWfZoaQifjzsi-71" value="" style="endArrow=none;html=1;rounded=0;exitX=0.5;exitY=0;exitDx=0;exitDy=0;entryX=0.5;entryY=1;entryDx=0;entryDy=0;" parent="1" source="ROAPfHrgWfZoaQifjzsi-70" target="ROAPfHrgWfZoaQifjzsi-68" edge="1">
          <mxGeometry width="50" height="50" relative="1" as="geometry">
            <mxPoint x="1430" y="477.5" as="sourcePoint" />
            <mxPoint x="1480" y="427.5" as="targetPoint" />
          </mxGeometry>
        </mxCell>
        <mxCell id="ROAPfHrgWfZoaQifjzsi-72" value="" style="endArrow=none;html=1;rounded=0;entryX=0.5;entryY=1;entryDx=0;entryDy=0;exitX=0.5;exitY=0;exitDx=0;exitDy=0;" parent="1" source="ROAPfHrgWfZoaQifjzsi-69" target="ROAPfHrgWfZoaQifjzsi-68" edge="1">
          <mxGeometry width="50" height="50" relative="1" as="geometry">
            <mxPoint x="1310" y="567.5" as="sourcePoint" />
            <mxPoint x="950" y="387.5000000000001" as="targetPoint" />
          </mxGeometry>
        </mxCell>
        <mxCell id="ROAPfHrgWfZoaQifjzsi-73" value="&lt;u&gt;fkod&lt;/u&gt;" style="rhombus;whiteSpace=wrap;html=1;" parent="1" vertex="1">
          <mxGeometry x="830" y="257.5" width="80" height="80" as="geometry" />
        </mxCell>
        <mxCell id="ROAPfHrgWfZoaQifjzsi-74" value="" style="endArrow=none;html=1;rounded=0;exitX=0.5;exitY=0;exitDx=0;exitDy=0;entryX=0;entryY=0.5;entryDx=0;entryDy=0;" parent="1" source="ROAPfHrgWfZoaQifjzsi-73" target="ROAPfHrgWfZoaQifjzsi-68" edge="1">
          <mxGeometry width="50" height="50" relative="1" as="geometry">
            <mxPoint x="987" y="552.5" as="sourcePoint" />
            <mxPoint x="1037" y="502.5" as="targetPoint" />
          </mxGeometry>
        </mxCell>
        <mxCell id="ROAPfHrgWfZoaQifjzsi-76" value="" style="endArrow=none;html=1;rounded=0;exitX=0.5;exitY=0;exitDx=0;exitDy=0;entryX=0.5;entryY=1;entryDx=0;entryDy=0;" parent="1" source="ROAPfHrgWfZoaQifjzsi-87" target="ROAPfHrgWfZoaQifjzsi-68" edge="1">
          <mxGeometry width="50" height="50" relative="1" as="geometry">
            <mxPoint x="1170" y="402.5" as="sourcePoint" />
            <mxPoint x="1480" y="427.5" as="targetPoint" />
          </mxGeometry>
        </mxCell>
        <mxCell id="ROAPfHrgWfZoaQifjzsi-77" value="e_f" style="rhombus;whiteSpace=wrap;html=1;" parent="1" vertex="1">
          <mxGeometry x="1240" y="280" width="80" height="80" as="geometry" />
        </mxCell>
        <mxCell id="ROAPfHrgWfZoaQifjzsi-78" value="" style="endArrow=none;dashed=1;html=1;rounded=0;exitX=0;exitY=1;exitDx=0;exitDy=0;entryX=1;entryY=1;entryDx=0;entryDy=0;" parent="1" source="ROAPfHrgWfZoaQifjzsi-77" target="ROAPfHrgWfZoaQifjzsi-77" edge="1">
          <mxGeometry width="50" height="50" relative="1" as="geometry">
            <mxPoint x="1647" y="350" as="sourcePoint" />
            <mxPoint x="1697" y="300" as="targetPoint" />
          </mxGeometry>
        </mxCell>
        <mxCell id="ROAPfHrgWfZoaQifjzsi-79" value="Foszakacs" style="ellipse;whiteSpace=wrap;html=1;" parent="1" vertex="1">
          <mxGeometry x="975" y="227.5" width="90" height="60" as="geometry" />
        </mxCell>
        <mxCell id="ROAPfHrgWfZoaQifjzsi-80" value="" style="rounded=0;whiteSpace=wrap;html=1;direction=south;" parent="1" vertex="1">
          <mxGeometry x="840" y="470" width="60" height="120" as="geometry" />
        </mxCell>
        <mxCell id="ROAPfHrgWfZoaQifjzsi-81" value="" style="rounded=0;whiteSpace=wrap;html=1;direction=south;" parent="1" vertex="1">
          <mxGeometry x="990" y="470" width="60" height="120" as="geometry" />
        </mxCell>
        <mxCell id="ROAPfHrgWfZoaQifjzsi-82" value="" style="rounded=0;whiteSpace=wrap;html=1;direction=south;" parent="1" vertex="1">
          <mxGeometry x="1140" y="470" width="60" height="120" as="geometry" />
        </mxCell>
        <mxCell id="ROAPfHrgWfZoaQifjzsi-83" value="" style="endArrow=none;html=1;rounded=0;exitX=0;exitY=0.5;exitDx=0;exitDy=0;entryX=0.5;entryY=1;entryDx=0;entryDy=0;" parent="1" source="ROAPfHrgWfZoaQifjzsi-81" target="ROAPfHrgWfZoaQifjzsi-69" edge="1">
          <mxGeometry width="50" height="50" relative="1" as="geometry">
            <mxPoint x="1500" y="427.5" as="sourcePoint" />
            <mxPoint x="1550" y="377.5" as="targetPoint" />
          </mxGeometry>
        </mxCell>
        <mxCell id="ROAPfHrgWfZoaQifjzsi-84" value="" style="endArrow=none;html=1;rounded=0;exitX=0;exitY=0.5;exitDx=0;exitDy=0;entryX=0.5;entryY=1;entryDx=0;entryDy=0;" parent="1" source="ROAPfHrgWfZoaQifjzsi-82" target="ROAPfHrgWfZoaQifjzsi-87" edge="1">
          <mxGeometry width="50" height="50" relative="1" as="geometry">
            <mxPoint x="1500" y="427.5" as="sourcePoint" />
            <mxPoint x="1170" y="482.5" as="targetPoint" />
          </mxGeometry>
        </mxCell>
        <mxCell id="ROAPfHrgWfZoaQifjzsi-85" value="" style="endArrow=none;html=1;rounded=0;exitX=0;exitY=0.5;exitDx=0;exitDy=0;entryX=0.5;entryY=1;entryDx=0;entryDy=0;" parent="1" source="ROAPfHrgWfZoaQifjzsi-80" target="ROAPfHrgWfZoaQifjzsi-70" edge="1">
          <mxGeometry width="50" height="50" relative="1" as="geometry">
            <mxPoint x="1500" y="427.5" as="sourcePoint" />
            <mxPoint x="1550" y="377.5" as="targetPoint" />
          </mxGeometry>
        </mxCell>
        <mxCell id="ROAPfHrgWfZoaQifjzsi-87" value="" style="ellipse;whiteSpace=wrap;html=1;" parent="1" vertex="1">
          <mxGeometry x="1110" y="360" width="120" height="80" as="geometry" />
        </mxCell>
        <mxCell id="ROAPfHrgWfZoaQifjzsi-88" value="vegzettseg" style="ellipse;whiteSpace=wrap;html=1;" parent="1" vertex="1">
          <mxGeometry x="1123.5" y="367.5" width="93" height="65" as="geometry" />
        </mxCell>
        <mxCell id="ROAPfHrgWfZoaQifjzsi-89" value="" style="endArrow=none;html=1;rounded=0;entryX=0.5;entryY=0;entryDx=0;entryDy=0;exitX=1;exitY=0.5;exitDx=0;exitDy=0;" parent="1" source="ROAPfHrgWfZoaQifjzsi-68" target="ROAPfHrgWfZoaQifjzsi-77" edge="1">
          <mxGeometry width="50" height="50" relative="1" as="geometry">
            <mxPoint x="523" y="427.5" as="sourcePoint" />
            <mxPoint x="573" y="377.5" as="targetPoint" />
          </mxGeometry>
        </mxCell>
        <mxCell id="ROAPfHrgWfZoaQifjzsi-90" value="" style="endArrow=none;dashed=1;html=1;rounded=0;entryX=0.5;entryY=1;entryDx=0;entryDy=0;" parent="1" target="ROAPfHrgWfZoaQifjzsi-77" edge="1">
          <mxGeometry width="50" height="50" relative="1" as="geometry">
            <mxPoint x="1285.0779854910713" y="850" as="sourcePoint" />
            <mxPoint x="580" y="520" as="targetPoint" />
          </mxGeometry>
        </mxCell>
        <mxCell id="ROAPfHrgWfZoaQifjzsi-91" value="" style="endArrow=none;dashed=1;html=1;rounded=0;" parent="1" edge="1">
          <mxGeometry width="50" height="50" relative="1" as="geometry">
            <mxPoint y="840" as="sourcePoint" />
            <mxPoint x="1290" y="850" as="targetPoint" />
          </mxGeometry>
        </mxCell>
        <mxCell id="ROAPfHrgWfZoaQifjzsi-93" value="HK74CE_vendeglatas" style="ellipse;whiteSpace=wrap;html=1;" parent="1" vertex="1">
          <mxGeometry x="1460" y="-90" width="120" height="80" as="geometry" />
        </mxCell>
        <mxCell id="ROAPfHrgWfZoaQifjzsi-94" value="" style="endArrow=none;html=1;rounded=0;entryX=0.5;entryY=1;entryDx=0;entryDy=0;exitX=0.5;exitY=0;exitDx=0;exitDy=0;" parent="1" source="ROAPfHrgWfZoaQifjzsi-6" target="ROAPfHrgWfZoaQifjzsi-93" edge="1">
          <mxGeometry width="50" height="50" relative="1" as="geometry">
            <mxPoint x="360" y="400" as="sourcePoint" />
            <mxPoint x="410" y="350" as="targetPoint" />
          </mxGeometry>
        </mxCell>
        <mxCell id="ROAPfHrgWfZoaQifjzsi-95" value="" style="endArrow=none;dashed=1;html=1;rounded=0;" parent="1" edge="1">
          <mxGeometry width="50" height="50" relative="1" as="geometry">
            <mxPoint y="840" as="sourcePoint" />
            <mxPoint y="300" as="targetPoint" />
          </mxGeometry>
        </mxCell>
        <mxCell id="ROAPfHrgWfZoaQifjzsi-96" value="" style="endArrow=none;dashed=1;html=1;rounded=0;entryX=0;entryY=0.5;entryDx=0;entryDy=0;" parent="1" target="ROAPfHrgWfZoaQifjzsi-8" edge="1">
          <mxGeometry width="50" height="50" relative="1" as="geometry">
            <mxPoint y="300" as="sourcePoint" />
            <mxPoint x="560" y="430" as="targetPoint" />
          </mxGeometry>
        </mxCell>
        <mxCell id="ROAPfHrgWfZoaQifjzsi-97" value="" style="ellipse;whiteSpace=wrap;html=1;" parent="1" vertex="1">
          <mxGeometry x="1460" y="210" width="120" height="80" as="geometry" />
        </mxCell>
        <mxCell id="ROAPfHrgWfZoaQifjzsi-98" value="" style="ellipse;whiteSpace=wrap;html=1;" parent="1" vertex="1">
          <mxGeometry x="1970" y="217.5" width="120" height="80" as="geometry" />
        </mxCell>
        <mxCell id="ROAPfHrgWfZoaQifjzsi-99" value="" style="ellipse;whiteSpace=wrap;html=1;" parent="1" vertex="1">
          <mxGeometry x="2470" y="210" width="120" height="80" as="geometry" />
        </mxCell>
        <mxCell id="ROAPfHrgWfZoaQifjzsi-100" value="&lt;u&gt;szkod&lt;/u&gt;" style="rhombus;whiteSpace=wrap;html=1;" parent="1" vertex="1">
          <mxGeometry x="1340" y="260" width="80" height="80" as="geometry" />
        </mxCell>
        <mxCell id="ROAPfHrgWfZoaQifjzsi-101" value="" style="endArrow=none;html=1;rounded=0;entryX=0;entryY=0.5;entryDx=0;entryDy=0;exitX=0.5;exitY=0;exitDx=0;exitDy=0;" parent="1" source="ROAPfHrgWfZoaQifjzsi-100" target="ROAPfHrgWfZoaQifjzsi-97" edge="1">
          <mxGeometry width="50" height="50" relative="1" as="geometry">
            <mxPoint x="1470" y="510" as="sourcePoint" />
            <mxPoint x="1520" y="460" as="targetPoint" />
          </mxGeometry>
        </mxCell>
        <mxCell id="ROAPfHrgWfZoaQifjzsi-102" value="SzakÃ¡cs" style="ellipse;whiteSpace=wrap;html=1;" parent="1" vertex="1">
          <mxGeometry x="1475" y="220" width="90" height="60" as="geometry" />
        </mxCell>
        <mxCell id="ROAPfHrgWfZoaQifjzsi-103" value="" style="rounded=0;whiteSpace=wrap;html=1;direction=south;" parent="1" vertex="1">
          <mxGeometry x="1640" y="470" width="60" height="120" as="geometry" />
        </mxCell>
        <mxCell id="ROAPfHrgWfZoaQifjzsi-104" value="" style="endArrow=none;html=1;rounded=0;exitX=0;exitY=0.5;exitDx=0;exitDy=0;entryX=0.5;entryY=1;entryDx=0;entryDy=0;" parent="1" source="ROAPfHrgWfZoaQifjzsi-103" target="ROAPfHrgWfZoaQifjzsi-105" edge="1">
          <mxGeometry width="50" height="50" relative="1" as="geometry">
            <mxPoint x="2000" y="422.5" as="sourcePoint" />
            <mxPoint x="1670" y="477.5" as="targetPoint" />
          </mxGeometry>
        </mxCell>
        <mxCell id="ROAPfHrgWfZoaQifjzsi-105" value="" style="ellipse;whiteSpace=wrap;html=1;" parent="1" vertex="1">
          <mxGeometry x="1610" y="360" width="120" height="80" as="geometry" />
        </mxCell>
        <mxCell id="ROAPfHrgWfZoaQifjzsi-106" value="vegzettseg" style="ellipse;whiteSpace=wrap;html=1;" parent="1" vertex="1">
          <mxGeometry x="1623.5" y="367.5" width="93" height="65" as="geometry" />
        </mxCell>
        <mxCell id="ROAPfHrgWfZoaQifjzsi-107" value="reszleg" style="ellipse;whiteSpace=wrap;html=1;" parent="1" vertex="1">
          <mxGeometry x="1460" y="360" width="120" height="80" as="geometry" />
        </mxCell>
        <mxCell id="ROAPfHrgWfZoaQifjzsi-108" value="nev" style="ellipse;whiteSpace=wrap;html=1;" parent="1" vertex="1">
          <mxGeometry x="1330" y="360" width="120" height="80" as="geometry" />
        </mxCell>
        <mxCell id="ROAPfHrgWfZoaQifjzsi-109" value="" style="endArrow=none;html=1;rounded=0;exitX=0.5;exitY=0;exitDx=0;exitDy=0;entryX=0.5;entryY=1;entryDx=0;entryDy=0;" parent="1" source="ROAPfHrgWfZoaQifjzsi-108" target="ROAPfHrgWfZoaQifjzsi-97" edge="1">
          <mxGeometry width="50" height="50" relative="1" as="geometry">
            <mxPoint x="1460" y="420" as="sourcePoint" />
            <mxPoint x="1530" y="300" as="targetPoint" />
          </mxGeometry>
        </mxCell>
        <mxCell id="ROAPfHrgWfZoaQifjzsi-110" value="" style="endArrow=none;html=1;rounded=0;entryX=0.5;entryY=1;entryDx=0;entryDy=0;exitX=0.5;exitY=0;exitDx=0;exitDy=0;" parent="1" source="ROAPfHrgWfZoaQifjzsi-107" target="ROAPfHrgWfZoaQifjzsi-97" edge="1">
          <mxGeometry width="50" height="50" relative="1" as="geometry">
            <mxPoint x="1460" y="420" as="sourcePoint" />
            <mxPoint x="1510" y="370" as="targetPoint" />
          </mxGeometry>
        </mxCell>
        <mxCell id="ROAPfHrgWfZoaQifjzsi-111" value="" style="endArrow=none;html=1;rounded=0;entryX=0.5;entryY=1;entryDx=0;entryDy=0;exitX=0.5;exitY=0;exitDx=0;exitDy=0;" parent="1" source="ROAPfHrgWfZoaQifjzsi-105" target="ROAPfHrgWfZoaQifjzsi-97" edge="1">
          <mxGeometry width="50" height="50" relative="1" as="geometry">
            <mxPoint x="1460" y="420" as="sourcePoint" />
            <mxPoint x="1510" y="370" as="targetPoint" />
          </mxGeometry>
        </mxCell>
        <mxCell id="ROAPfHrgWfZoaQifjzsi-112" value="e_s&lt;span style=&quot;background-color: initial;&quot;&gt;z&lt;/span&gt;" style="rhombus;whiteSpace=wrap;html=1;" parent="1" vertex="1">
          <mxGeometry x="1740" y="282.5" width="80" height="80" as="geometry" />
        </mxCell>
        <mxCell id="ROAPfHrgWfZoaQifjzsi-115" value="" style="endArrow=none;html=1;rounded=0;entryX=0.5;entryY=0;entryDx=0;entryDy=0;exitX=1;exitY=0.5;exitDx=0;exitDy=0;" parent="1" source="ROAPfHrgWfZoaQifjzsi-97" target="ROAPfHrgWfZoaQifjzsi-112" edge="1">
          <mxGeometry width="50" height="50" relative="1" as="geometry">
            <mxPoint x="1290" y="430" as="sourcePoint" />
            <mxPoint x="1340" y="380" as="targetPoint" />
          </mxGeometry>
        </mxCell>
        <mxCell id="ROAPfHrgWfZoaQifjzsi-116" value="" style="endArrow=none;dashed=1;html=1;dashPattern=1 3;strokeWidth=2;rounded=0;entryX=0.5;entryY=1;entryDx=0;entryDy=0;" parent="1" target="ROAPfHrgWfZoaQifjzsi-112" edge="1">
          <mxGeometry width="50" height="50" relative="1" as="geometry">
            <mxPoint x="1780" y="890" as="sourcePoint" />
            <mxPoint x="1340" y="380" as="targetPoint" />
          </mxGeometry>
        </mxCell>
        <mxCell id="ROAPfHrgWfZoaQifjzsi-117" value="" style="endArrow=none;dashed=1;html=1;dashPattern=1 3;strokeWidth=2;rounded=0;" parent="1" edge="1">
          <mxGeometry width="50" height="50" relative="1" as="geometry">
            <mxPoint x="-20" y="870" as="sourcePoint" />
            <mxPoint x="1780" y="890" as="targetPoint" />
          </mxGeometry>
        </mxCell>
        <mxCell id="ROAPfHrgWfZoaQifjzsi-118" value="" style="endArrow=none;dashed=1;html=1;dashPattern=1 3;strokeWidth=2;rounded=0;" parent="1" edge="1">
          <mxGeometry width="50" height="50" relative="1" as="geometry">
            <mxPoint x="-20" y="870" as="sourcePoint" />
            <mxPoint x="-20" y="280" as="targetPoint" />
          </mxGeometry>
        </mxCell>
        <mxCell id="ROAPfHrgWfZoaQifjzsi-119" value="" style="endArrow=none;dashed=1;html=1;rounded=0;entryX=0;entryY=0;entryDx=0;entryDy=0;" parent="1" target="ROAPfHrgWfZoaQifjzsi-8" edge="1">
          <mxGeometry width="50" height="50" relative="1" as="geometry">
            <mxPoint x="-20" y="280" as="sourcePoint" />
            <mxPoint x="130" y="290" as="targetPoint" />
          </mxGeometry>
        </mxCell>
        <mxCell id="ROAPfHrgWfZoaQifjzsi-120" value="" style="endArrow=none;html=1;rounded=0;entryX=0.5;entryY=1;entryDx=0;entryDy=0;exitX=0.5;exitY=0;exitDx=0;exitDy=0;" parent="1" source="ROAPfHrgWfZoaQifjzsi-68" target="ROAPfHrgWfZoaQifjzsi-93" edge="1">
          <mxGeometry width="50" height="50" relative="1" as="geometry">
            <mxPoint x="1080" y="260" as="sourcePoint" />
            <mxPoint x="1130" y="210" as="targetPoint" />
          </mxGeometry>
        </mxCell>
        <mxCell id="ROAPfHrgWfZoaQifjzsi-121" value="" style="endArrow=none;html=1;rounded=0;entryX=0.5;entryY=1;entryDx=0;entryDy=0;exitX=0.5;exitY=0;exitDx=0;exitDy=0;" parent="1" source="ROAPfHrgWfZoaQifjzsi-97" target="ROAPfHrgWfZoaQifjzsi-93" edge="1">
          <mxGeometry width="50" height="50" relative="1" as="geometry">
            <mxPoint x="1080" y="260" as="sourcePoint" />
            <mxPoint x="1130" y="210" as="targetPoint" />
          </mxGeometry>
        </mxCell>
        <mxCell id="3DLfMae9XXRwTqTxBzFo-1" value="e_gy" style="rhombus;whiteSpace=wrap;html=1;" parent="1" vertex="1">
          <mxGeometry x="2200" y="297.5" width="80" height="80" as="geometry" />
        </mxCell>
        <mxCell id="3DLfMae9XXRwTqTxBzFo-2" value="" style="endArrow=none;dashed=1;html=1;dashPattern=1 3;strokeWidth=2;rounded=0;exitX=0;exitY=1;exitDx=0;exitDy=0;entryX=1;entryY=1;entryDx=0;entryDy=0;" parent="1" source="3DLfMae9XXRwTqTxBzFo-1" target="3DLfMae9XXRwTqTxBzFo-1" edge="1">
          <mxGeometry width="50" height="50" relative="1" as="geometry">
            <mxPoint x="1420" y="347.5" as="sourcePoint" />
            <mxPoint x="1470" y="297.5" as="targetPoint" />
          </mxGeometry>
        </mxCell>
        <mxCell id="3DLfMae9XXRwTqTxBzFo-3" value="" style="endArrow=none;html=1;rounded=0;entryX=0.5;entryY=0;entryDx=0;entryDy=0;exitX=1;exitY=0.5;exitDx=0;exitDy=0;" parent="1" source="ROAPfHrgWfZoaQifjzsi-98" target="3DLfMae9XXRwTqTxBzFo-1" edge="1">
          <mxGeometry width="50" height="50" relative="1" as="geometry">
            <mxPoint x="1370" y="347.5" as="sourcePoint" />
            <mxPoint x="1420" y="297.5" as="targetPoint" />
          </mxGeometry>
        </mxCell>
        <mxCell id="3DLfMae9XXRwTqTxBzFo-4" value="" style="endArrow=none;dashed=1;html=1;dashPattern=1 3;strokeWidth=2;rounded=0;exitX=0.5;exitY=1;exitDx=0;exitDy=0;" parent="1" source="3DLfMae9XXRwTqTxBzFo-1" edge="1">
          <mxGeometry width="50" height="50" relative="1" as="geometry">
            <mxPoint x="1370" y="330" as="sourcePoint" />
            <mxPoint x="2240" y="930" as="targetPoint" />
          </mxGeometry>
        </mxCell>
        <mxCell id="3DLfMae9XXRwTqTxBzFo-5" value="" style="endArrow=none;dashed=1;html=1;dashPattern=1 3;strokeWidth=2;rounded=0;" parent="1" edge="1">
          <mxGeometry width="50" height="50" relative="1" as="geometry">
            <mxPoint x="-50" y="930" as="sourcePoint" />
            <mxPoint x="2240" y="930" as="targetPoint" />
          </mxGeometry>
        </mxCell>
        <mxCell id="3DLfMae9XXRwTqTxBzFo-6" value="" style="endArrow=none;dashed=1;html=1;dashPattern=1 3;strokeWidth=2;rounded=0;" parent="1" edge="1">
          <mxGeometry width="50" height="50" relative="1" as="geometry">
            <mxPoint x="-50" y="930" as="sourcePoint" />
            <mxPoint x="-50" y="260" as="targetPoint" />
          </mxGeometry>
        </mxCell>
        <mxCell id="3DLfMae9XXRwTqTxBzFo-7" value="" style="endArrow=none;dashed=1;html=1;dashPattern=1 3;strokeWidth=2;rounded=0;entryX=0.5;entryY=0;entryDx=0;entryDy=0;" parent="1" target="ROAPfHrgWfZoaQifjzsi-8" edge="1">
          <mxGeometry width="50" height="50" relative="1" as="geometry">
            <mxPoint x="-50" y="260" as="sourcePoint" />
            <mxPoint x="160" y="270" as="targetPoint" />
          </mxGeometry>
        </mxCell>
        <mxCell id="3DLfMae9XXRwTqTxBzFo-8" value="&lt;u&gt;gykod&lt;/u&gt;" style="rhombus;whiteSpace=wrap;html=1;" parent="1" vertex="1">
          <mxGeometry x="1850" y="280" width="80" height="80" as="geometry" />
        </mxCell>
        <mxCell id="3DLfMae9XXRwTqTxBzFo-9" value="" style="endArrow=none;html=1;rounded=0;entryX=0;entryY=0.5;entryDx=0;entryDy=0;exitX=0.5;exitY=0;exitDx=0;exitDy=0;" parent="1" source="3DLfMae9XXRwTqTxBzFo-8" target="ROAPfHrgWfZoaQifjzsi-98" edge="1">
          <mxGeometry width="50" height="50" relative="1" as="geometry">
            <mxPoint x="1210" y="347.5" as="sourcePoint" />
            <mxPoint x="1260" y="297.5" as="targetPoint" />
          </mxGeometry>
        </mxCell>
        <mxCell id="3DLfMae9XXRwTqTxBzFo-10" value="gyakorlat" style="ellipse;whiteSpace=wrap;html=1;" parent="1" vertex="1">
          <mxGeometry x="1970" y="367.5" width="120" height="80" as="geometry" />
        </mxCell>
        <mxCell id="3DLfMae9XXRwTqTxBzFo-11" value="nev" style="ellipse;whiteSpace=wrap;html=1;" parent="1" vertex="1">
          <mxGeometry x="1840" y="370" width="120" height="80" as="geometry" />
        </mxCell>
        <mxCell id="3DLfMae9XXRwTqTxBzFo-12" value="" style="endArrow=none;html=1;rounded=0;entryX=0.5;entryY=1;entryDx=0;entryDy=0;exitX=0.5;exitY=0;exitDx=0;exitDy=0;" parent="1" source="3DLfMae9XXRwTqTxBzFo-11" target="ROAPfHrgWfZoaQifjzsi-98" edge="1">
          <mxGeometry width="50" height="50" relative="1" as="geometry">
            <mxPoint x="1210" y="347.5" as="sourcePoint" />
            <mxPoint x="1260" y="297.5" as="targetPoint" />
          </mxGeometry>
        </mxCell>
        <mxCell id="3DLfMae9XXRwTqTxBzFo-13" value="" style="endArrow=none;html=1;rounded=0;entryX=0.5;entryY=1;entryDx=0;entryDy=0;exitX=0.5;exitY=0;exitDx=0;exitDy=0;" parent="1" source="3DLfMae9XXRwTqTxBzFo-10" target="ROAPfHrgWfZoaQifjzsi-98" edge="1">
          <mxGeometry width="50" height="50" relative="1" as="geometry">
            <mxPoint x="1210" y="347.5" as="sourcePoint" />
            <mxPoint x="1260" y="297.5" as="targetPoint" />
          </mxGeometry>
        </mxCell>
        <mxCell id="3DLfMae9XXRwTqTxBzFo-14" value="" style="endArrow=none;html=1;rounded=0;entryX=0.5;entryY=1;entryDx=0;entryDy=0;exitX=0;exitY=0.5;exitDx=0;exitDy=0;" parent="1" source="3DLfMae9XXRwTqTxBzFo-15" target="3DLfMae9XXRwTqTxBzFo-11" edge="1">
          <mxGeometry width="50" height="50" relative="1" as="geometry">
            <mxPoint x="1910" y="462.5" as="sourcePoint" />
            <mxPoint x="1230" y="292.5" as="targetPoint" />
          </mxGeometry>
        </mxCell>
        <mxCell id="3DLfMae9XXRwTqTxBzFo-15" value="" style="rounded=0;whiteSpace=wrap;html=1;direction=south;" parent="1" vertex="1">
          <mxGeometry x="1870" y="460" width="60" height="120" as="geometry" />
        </mxCell>
        <mxCell id="3DLfMae9XXRwTqTxBzFo-16" value="Kezdete" style="ellipse;whiteSpace=wrap;html=1;" parent="1" vertex="1">
          <mxGeometry x="1920" y="590" width="100" height="65" as="geometry" />
        </mxCell>
        <mxCell id="3DLfMae9XXRwTqTxBzFo-17" value="Idotartam" style="ellipse;whiteSpace=wrap;html=1;" parent="1" vertex="1">
          <mxGeometry x="2050" y="590" width="100" height="65" as="geometry" />
        </mxCell>
        <mxCell id="3DLfMae9XXRwTqTxBzFo-18" value="" style="endArrow=none;html=1;rounded=0;entryX=0.5;entryY=1;entryDx=0;entryDy=0;exitX=0.5;exitY=0;exitDx=0;exitDy=0;" parent="1" source="3DLfMae9XXRwTqTxBzFo-16" target="3DLfMae9XXRwTqTxBzFo-10" edge="1">
          <mxGeometry width="50" height="50" relative="1" as="geometry">
            <mxPoint x="1210" y="347.5" as="sourcePoint" />
            <mxPoint x="1260" y="297.5" as="targetPoint" />
          </mxGeometry>
        </mxCell>
        <mxCell id="3DLfMae9XXRwTqTxBzFo-19" value="" style="endArrow=none;html=1;rounded=0;entryX=0.5;entryY=0;entryDx=0;entryDy=0;exitX=0.5;exitY=1;exitDx=0;exitDy=0;" parent="1" source="3DLfMae9XXRwTqTxBzFo-10" target="3DLfMae9XXRwTqTxBzFo-17" edge="1">
          <mxGeometry width="50" height="50" relative="1" as="geometry">
            <mxPoint x="1210" y="347.5" as="sourcePoint" />
            <mxPoint x="1260" y="297.5" as="targetPoint" />
          </mxGeometry>
        </mxCell>
        <mxCell id="3DLfMae9XXRwTqTxBzFo-20" value="" style="endArrow=none;html=1;rounded=0;entryX=0.5;entryY=1;entryDx=0;entryDy=0;exitX=1;exitY=0.5;exitDx=0;exitDy=0;" parent="1" source="3DLfMae9XXRwTqTxBzFo-22" target="3DLfMae9XXRwTqTxBzFo-16" edge="1">
          <mxGeometry width="50" height="50" relative="1" as="geometry">
            <mxPoint x="1210" y="347.5" as="sourcePoint" />
            <mxPoint x="1260" y="297.5" as="targetPoint" />
          </mxGeometry>
        </mxCell>
        <mxCell id="3DLfMae9XXRwTqTxBzFo-21" value="" style="endArrow=none;html=1;rounded=0;entryX=0.5;entryY=1;entryDx=0;entryDy=0;exitX=1;exitY=0.5;exitDx=0;exitDy=0;" parent="1" source="3DLfMae9XXRwTqTxBzFo-23" target="3DLfMae9XXRwTqTxBzFo-17" edge="1">
          <mxGeometry width="50" height="50" relative="1" as="geometry">
            <mxPoint x="1210" y="347.5" as="sourcePoint" />
            <mxPoint x="1260" y="297.5" as="targetPoint" />
          </mxGeometry>
        </mxCell>
        <mxCell id="3DLfMae9XXRwTqTxBzFo-22" value="" style="rounded=0;whiteSpace=wrap;html=1;rotation=-90;" parent="1" vertex="1">
          <mxGeometry x="1910" y="697.5" width="120" height="60" as="geometry" />
        </mxCell>
        <mxCell id="3DLfMae9XXRwTqTxBzFo-23" value="" style="rounded=0;whiteSpace=wrap;html=1;rotation=-90;" parent="1" vertex="1">
          <mxGeometry x="2040" y="697.5" width="120" height="60" as="geometry" />
        </mxCell>
        <mxCell id="iWvI_TgvHW9LkMBrBu7h-1" value="&lt;u&gt;vkod&lt;/u&gt;" style="rhombus;whiteSpace=wrap;html=1;" parent="1" vertex="1">
          <mxGeometry x="2290" y="280" width="80" height="80" as="geometry" />
        </mxCell>
        <mxCell id="iWvI_TgvHW9LkMBrBu7h-2" value="" style="endArrow=none;html=1;rounded=0;exitX=0.5;exitY=0;exitDx=0;exitDy=0;entryX=0;entryY=0.5;entryDx=0;entryDy=0;" parent="1" source="iWvI_TgvHW9LkMBrBu7h-1" target="ROAPfHrgWfZoaQifjzsi-99" edge="1">
          <mxGeometry width="50" height="50" relative="1" as="geometry">
            <mxPoint x="2920" y="460" as="sourcePoint" />
            <mxPoint x="2970" y="410" as="targetPoint" />
          </mxGeometry>
        </mxCell>
        <mxCell id="iWvI_TgvHW9LkMBrBu7h-3" value="cÃ­m" style="ellipse;whiteSpace=wrap;html=1;" parent="1" vertex="1">
          <mxGeometry x="2620" y="370" width="120" height="80" as="geometry" />
        </mxCell>
        <mxCell id="iWvI_TgvHW9LkMBrBu7h-4" value="eletkor" style="ellipse;whiteSpace=wrap;html=1;" parent="1" vertex="1">
          <mxGeometry x="2470" y="370" width="120" height="80" as="geometry" />
        </mxCell>
        <mxCell id="iWvI_TgvHW9LkMBrBu7h-5" value="nev" style="ellipse;whiteSpace=wrap;html=1;" parent="1" vertex="1">
          <mxGeometry x="2320" y="367.5" width="120" height="80" as="geometry" />
        </mxCell>
        <mxCell id="iWvI_TgvHW9LkMBrBu7h-6" value="" style="endArrow=none;html=1;rounded=0;entryX=0.5;entryY=1;entryDx=0;entryDy=0;exitX=0.5;exitY=0;exitDx=0;exitDy=0;" parent="1" source="iWvI_TgvHW9LkMBrBu7h-5" target="ROAPfHrgWfZoaQifjzsi-99" edge="1">
          <mxGeometry width="50" height="50" relative="1" as="geometry">
            <mxPoint x="2130" y="460" as="sourcePoint" />
            <mxPoint x="2180" y="410" as="targetPoint" />
          </mxGeometry>
        </mxCell>
        <mxCell id="iWvI_TgvHW9LkMBrBu7h-7" value="" style="endArrow=none;html=1;rounded=0;entryX=0.5;entryY=1;entryDx=0;entryDy=0;exitX=0.5;exitY=0;exitDx=0;exitDy=0;" parent="1" source="iWvI_TgvHW9LkMBrBu7h-4" target="ROAPfHrgWfZoaQifjzsi-99" edge="1">
          <mxGeometry width="50" height="50" relative="1" as="geometry">
            <mxPoint x="2130" y="460" as="sourcePoint" />
            <mxPoint x="2180" y="410" as="targetPoint" />
          </mxGeometry>
        </mxCell>
        <mxCell id="iWvI_TgvHW9LkMBrBu7h-8" value="" style="endArrow=none;html=1;rounded=0;entryX=0.5;entryY=1;entryDx=0;entryDy=0;exitX=0.5;exitY=0;exitDx=0;exitDy=0;" parent="1" source="iWvI_TgvHW9LkMBrBu7h-3" target="ROAPfHrgWfZoaQifjzsi-99" edge="1">
          <mxGeometry width="50" height="50" relative="1" as="geometry">
            <mxPoint x="2130" y="460" as="sourcePoint" />
            <mxPoint x="2180" y="410" as="targetPoint" />
          </mxGeometry>
        </mxCell>
        <mxCell id="iWvI_TgvHW9LkMBrBu7h-9" value="" style="endArrow=none;html=1;rounded=0;entryX=0.5;entryY=1;entryDx=0;entryDy=0;exitX=0.5;exitY=0;exitDx=0;exitDy=0;" parent="1" source="iWvI_TgvHW9LkMBrBu7h-18" target="iWvI_TgvHW9LkMBrBu7h-3" edge="1">
          <mxGeometry width="50" height="50" relative="1" as="geometry">
            <mxPoint x="2680" y="470" as="sourcePoint" />
            <mxPoint x="2180" y="410" as="targetPoint" />
          </mxGeometry>
        </mxCell>
        <mxCell id="iWvI_TgvHW9LkMBrBu7h-10" value="" style="endArrow=none;html=1;rounded=0;entryX=0.5;entryY=1;entryDx=0;entryDy=0;exitX=1;exitY=0.5;exitDx=0;exitDy=0;" parent="1" source="iWvI_TgvHW9LkMBrBu7h-13" target="iWvI_TgvHW9LkMBrBu7h-4" edge="1">
          <mxGeometry width="50" height="50" relative="1" as="geometry">
            <mxPoint x="2530" y="490" as="sourcePoint" />
            <mxPoint x="2180" y="410" as="targetPoint" />
          </mxGeometry>
        </mxCell>
        <mxCell id="iWvI_TgvHW9LkMBrBu7h-11" value="" style="endArrow=none;html=1;rounded=0;entryX=0.5;entryY=1;entryDx=0;entryDy=0;exitX=1;exitY=0.5;exitDx=0;exitDy=0;" parent="1" source="iWvI_TgvHW9LkMBrBu7h-12" target="iWvI_TgvHW9LkMBrBu7h-5" edge="1">
          <mxGeometry width="50" height="50" relative="1" as="geometry">
            <mxPoint x="2380" y="490" as="sourcePoint" />
            <mxPoint x="2180" y="410" as="targetPoint" />
          </mxGeometry>
        </mxCell>
        <mxCell id="iWvI_TgvHW9LkMBrBu7h-12" value="" style="rounded=0;whiteSpace=wrap;html=1;rotation=-90;" parent="1" vertex="1">
          <mxGeometry x="2320" y="495" width="120" height="60" as="geometry" />
        </mxCell>
        <mxCell id="iWvI_TgvHW9LkMBrBu7h-13" value="" style="rounded=0;whiteSpace=wrap;html=1;rotation=-90;" parent="1" vertex="1">
          <mxGeometry x="2470" y="497.5" width="120" height="60" as="geometry" />
        </mxCell>
        <mxCell id="iWvI_TgvHW9LkMBrBu7h-18" value="Varos" style="ellipse;whiteSpace=wrap;html=1;" parent="1" vertex="1">
          <mxGeometry x="2510" y="600" width="100" height="70" as="geometry" />
        </mxCell>
        <mxCell id="iWvI_TgvHW9LkMBrBu7h-19" value="Utca" style="ellipse;whiteSpace=wrap;html=1;" parent="1" vertex="1">
          <mxGeometry x="2630" y="600" width="100" height="70" as="geometry" />
        </mxCell>
        <mxCell id="iWvI_TgvHW9LkMBrBu7h-20" value="Hazszam" style="ellipse;whiteSpace=wrap;html=1;" parent="1" vertex="1">
          <mxGeometry x="2750" y="600" width="100" height="70" as="geometry" />
        </mxCell>
        <mxCell id="iWvI_TgvHW9LkMBrBu7h-21" value="" style="endArrow=none;html=1;rounded=0;entryX=0.5;entryY=1;entryDx=0;entryDy=0;exitX=0.5;exitY=0;exitDx=0;exitDy=0;" parent="1" source="iWvI_TgvHW9LkMBrBu7h-19" target="iWvI_TgvHW9LkMBrBu7h-3" edge="1">
          <mxGeometry width="50" height="50" relative="1" as="geometry">
            <mxPoint x="2390" y="680" as="sourcePoint" />
            <mxPoint x="2440" y="630" as="targetPoint" />
          </mxGeometry>
        </mxCell>
        <mxCell id="iWvI_TgvHW9LkMBrBu7h-22" value="" style="endArrow=none;html=1;rounded=0;entryX=0.5;entryY=1;entryDx=0;entryDy=0;exitX=0.5;exitY=0;exitDx=0;exitDy=0;" parent="1" source="iWvI_TgvHW9LkMBrBu7h-20" target="iWvI_TgvHW9LkMBrBu7h-3" edge="1">
          <mxGeometry width="50" height="50" relative="1" as="geometry">
            <mxPoint x="2390" y="680" as="sourcePoint" />
            <mxPoint x="2440" y="630" as="targetPoint" />
          </mxGeometry>
        </mxCell>
        <mxCell id="iWvI_TgvHW9LkMBrBu7h-23" value="" style="endArrow=none;html=1;rounded=0;entryX=0.5;entryY=1;entryDx=0;entryDy=0;exitX=1;exitY=0.5;exitDx=0;exitDy=0;" parent="1" source="iWvI_TgvHW9LkMBrBu7h-26" target="iWvI_TgvHW9LkMBrBu7h-20" edge="1">
          <mxGeometry width="50" height="50" relative="1" as="geometry">
            <mxPoint x="2800" y="700" as="sourcePoint" />
            <mxPoint x="2440" y="630" as="targetPoint" />
          </mxGeometry>
        </mxCell>
        <mxCell id="iWvI_TgvHW9LkMBrBu7h-24" value="" style="endArrow=none;html=1;rounded=0;entryX=0.5;entryY=1;entryDx=0;entryDy=0;exitX=1;exitY=0.5;exitDx=0;exitDy=0;" parent="1" source="iWvI_TgvHW9LkMBrBu7h-27" target="iWvI_TgvHW9LkMBrBu7h-19" edge="1">
          <mxGeometry width="50" height="50" relative="1" as="geometry">
            <mxPoint x="2680" y="700" as="sourcePoint" />
            <mxPoint x="2440" y="630" as="targetPoint" />
          </mxGeometry>
        </mxCell>
        <mxCell id="iWvI_TgvHW9LkMBrBu7h-25" value="" style="endArrow=none;html=1;rounded=0;entryX=0.5;entryY=1;entryDx=0;entryDy=0;exitX=1;exitY=0.5;exitDx=0;exitDy=0;" parent="1" source="iWvI_TgvHW9LkMBrBu7h-28" target="iWvI_TgvHW9LkMBrBu7h-18" edge="1">
          <mxGeometry width="50" height="50" relative="1" as="geometry">
            <mxPoint x="2560" y="700" as="sourcePoint" />
            <mxPoint x="2440" y="630" as="targetPoint" />
          </mxGeometry>
        </mxCell>
        <mxCell id="iWvI_TgvHW9LkMBrBu7h-26" value="" style="rounded=0;whiteSpace=wrap;html=1;rotation=-90;" parent="1" vertex="1">
          <mxGeometry x="2740" y="720" width="120" height="60" as="geometry" />
        </mxCell>
        <mxCell id="iWvI_TgvHW9LkMBrBu7h-27" value="" style="rounded=0;whiteSpace=wrap;html=1;rotation=-90;" parent="1" vertex="1">
          <mxGeometry x="2620" y="720" width="120" height="60" as="geometry" />
        </mxCell>
        <mxCell id="iWvI_TgvHW9LkMBrBu7h-28" value="" style="rounded=0;whiteSpace=wrap;html=1;rotation=-90;" parent="1" vertex="1">
          <mxGeometry x="2500" y="720" width="120" height="60" as="geometry" />
        </mxCell>
        <mxCell id="iWvI_TgvHW9LkMBrBu7h-30" value="" style="endArrow=none;html=1;rounded=0;entryX=0.5;entryY=0;entryDx=0;entryDy=0;exitX=0.5;exitY=1;exitDx=0;exitDy=0;" parent="1" source="ROAPfHrgWfZoaQifjzsi-93" target="ROAPfHrgWfZoaQifjzsi-45" edge="1">
          <mxGeometry width="50" height="50" relative="1" as="geometry">
            <mxPoint x="2710" y="490" as="sourcePoint" />
            <mxPoint x="2760" y="440" as="targetPoint" />
          </mxGeometry>
        </mxCell>
        <mxCell id="iWvI_TgvHW9LkMBrBu7h-31" value="" style="endArrow=none;html=1;rounded=0;exitX=0.5;exitY=1;exitDx=0;exitDy=0;entryX=0.5;entryY=0;entryDx=0;entryDy=0;" parent="1" source="ROAPfHrgWfZoaQifjzsi-93" target="ROAPfHrgWfZoaQifjzsi-98" edge="1">
          <mxGeometry width="50" height="50" relative="1" as="geometry">
            <mxPoint x="1640" y="270" as="sourcePoint" />
            <mxPoint x="1690" y="220" as="targetPoint" />
          </mxGeometry>
        </mxCell>
        <mxCell id="iWvI_TgvHW9LkMBrBu7h-32" value="" style="endArrow=none;html=1;rounded=0;entryX=0.5;entryY=1;entryDx=0;entryDy=0;exitX=0.5;exitY=0;exitDx=0;exitDy=0;" parent="1" source="ROAPfHrgWfZoaQifjzsi-99" target="ROAPfHrgWfZoaQifjzsi-93" edge="1">
          <mxGeometry width="50" height="50" relative="1" as="geometry">
            <mxPoint x="1640" y="270" as="sourcePoint" />
            <mxPoint x="1690" y="220" as="targetPoint" />
          </mxGeometry>
        </mxCell>
        <mxCell id="iWvI_TgvHW9LkMBrBu7h-33" value="Gyakornok" style="ellipse;whiteSpace=wrap;html=1;" parent="1" vertex="1">
          <mxGeometry x="1985" y="227.5" width="90" height="60" as="geometry" />
        </mxCell>
        <mxCell id="iWvI_TgvHW9LkMBrBu7h-34" value="Vendeg" style="ellipse;whiteSpace=wrap;html=1;" parent="1" vertex="1">
          <mxGeometry x="2482.5" y="217.5" width="95" height="65" as="geometry" />
        </mxCell>
        <mxCell id="iWvI_TgvHW9LkMBrBu7h-35" value="" style="endArrow=none;dashed=1;html=1;dashPattern=1 3;strokeWidth=2;rounded=0;entryX=0.5;entryY=1;entryDx=0;entryDy=0;" parent="1" target="ROAPfHrgWfZoaQifjzsi-50" edge="1">
          <mxGeometry width="50" height="50" relative="1" as="geometry">
            <mxPoint x="3170" y="1010" as="sourcePoint" />
            <mxPoint x="2760" y="600" as="targetPoint" />
          </mxGeometry>
        </mxCell>
        <mxCell id="iWvI_TgvHW9LkMBrBu7h-36" value="" style="endArrow=none;dashed=1;html=1;dashPattern=1 3;strokeWidth=2;rounded=0;" parent="1" edge="1">
          <mxGeometry width="50" height="50" relative="1" as="geometry">
            <mxPoint x="-120" y="1000" as="sourcePoint" />
            <mxPoint x="3170" y="1010" as="targetPoint" />
          </mxGeometry>
        </mxCell>
        <mxCell id="iWvI_TgvHW9LkMBrBu7h-37" value="" style="endArrow=none;dashed=1;html=1;dashPattern=1 3;strokeWidth=2;rounded=0;" parent="1" edge="1">
          <mxGeometry width="50" height="50" relative="1" as="geometry">
            <mxPoint x="-120" y="1000" as="sourcePoint" />
            <mxPoint x="-120" y="210" as="targetPoint" />
          </mxGeometry>
        </mxCell>
        <mxCell id="iWvI_TgvHW9LkMBrBu7h-38" value="" style="endArrow=none;dashed=1;html=1;dashPattern=1 3;strokeWidth=2;rounded=0;" parent="1" edge="1">
          <mxGeometry width="50" height="50" relative="1" as="geometry">
            <mxPoint x="-120" y="210" as="sourcePoint" />
            <mxPoint x="190" y="210" as="targetPoint" />
          </mxGeometry>
        </mxCell>
        <mxCell id="iWvI_TgvHW9LkMBrBu7h-40" value="" style="endArrow=none;dashed=1;html=1;dashPattern=1 3;strokeWidth=2;rounded=0;entryX=0;entryY=1;entryDx=0;entryDy=0;exitX=1;exitY=1;exitDx=0;exitDy=0;" parent="1" source="ROAPfHrgWfZoaQifjzsi-112" target="ROAPfHrgWfZoaQifjzsi-112" edge="1">
          <mxGeometry width="50" height="50" relative="1" as="geometry">
            <mxPoint x="800" y="630" as="sourcePoint" />
            <mxPoint x="850" y="580" as="targetPoint" />
          </mxGeometry>
        </mxCell>
        <mxCell id="iWvI_TgvHW9LkMBrBu7h-41" value="" style="rounded=0;whiteSpace=wrap;html=1;rotation=-90;" parent="1" vertex="1">
          <mxGeometry x="1460" y="500" width="120" height="60" as="geometry" />
        </mxCell>
        <mxCell id="iWvI_TgvHW9LkMBrBu7h-42" value="" style="rounded=0;whiteSpace=wrap;html=1;rotation=-90;" parent="1" vertex="1">
          <mxGeometry x="1330" y="500" width="120" height="60" as="geometry" />
        </mxCell>
        <mxCell id="iWvI_TgvHW9LkMBrBu7h-43" value="" style="endArrow=none;html=1;rounded=0;exitX=1;exitY=0.5;exitDx=0;exitDy=0;entryX=0.5;entryY=1;entryDx=0;entryDy=0;" parent="1" source="iWvI_TgvHW9LkMBrBu7h-41" target="ROAPfHrgWfZoaQifjzsi-107" edge="1">
          <mxGeometry width="50" height="50" relative="1" as="geometry">
            <mxPoint x="1830" y="600" as="sourcePoint" />
            <mxPoint x="1880" y="550" as="targetPoint" />
          </mxGeometry>
        </mxCell>
        <mxCell id="iWvI_TgvHW9LkMBrBu7h-44" value="" style="endArrow=none;html=1;rounded=0;exitX=1;exitY=0.5;exitDx=0;exitDy=0;entryX=0.5;entryY=1;entryDx=0;entryDy=0;" parent="1" source="iWvI_TgvHW9LkMBrBu7h-42" target="ROAPfHrgWfZoaQifjzsi-108" edge="1">
          <mxGeometry width="50" height="50" relative="1" as="geometry">
            <mxPoint x="1830" y="600" as="sourcePoint" />
            <mxPoint x="1880" y="550" as="targetPoint" />
          </mxGeometry>
        </mxCell>
        <mxCell id="DxA6hMR1FraLRWYeFAij-1" value="" style="ellipse;whiteSpace=wrap;html=1;" vertex="1" parent="1">
          <mxGeometry x="2100" y="370" width="120" height="80" as="geometry" />
        </mxCell>
        <mxCell id="DxA6hMR1FraLRWYeFAij-4" value="" style="endArrow=none;html=1;rounded=0;entryX=0.5;entryY=1;entryDx=0;entryDy=0;exitX=0.5;exitY=0;exitDx=0;exitDy=0;" edge="1" parent="1" source="DxA6hMR1FraLRWYeFAij-1" target="ROAPfHrgWfZoaQifjzsi-98">
          <mxGeometry width="50" height="50" relative="1" as="geometry">
            <mxPoint x="2070" y="420" as="sourcePoint" />
            <mxPoint x="2120" y="370" as="targetPoint" />
          </mxGeometry>
        </mxCell>
        <mxCell id="DxA6hMR1FraLRWYeFAij-5" value="muszak" style="ellipse;whiteSpace=wrap;html=1;" vertex="1" parent="1">
          <mxGeometry x="2110" y="380" width="100" height="60" as="geometry" />
        </mxCell>
        <mxCell id="DxA6hMR1FraLRWYeFAij-6" value="" style="endArrow=none;html=1;rounded=0;entryX=0.5;entryY=1;entryDx=0;entryDy=0;exitX=1;exitY=0.5;exitDx=0;exitDy=0;" edge="1" parent="1" source="DxA6hMR1FraLRWYeFAij-7" target="DxA6hMR1FraLRWYeFAij-1">
          <mxGeometry width="50" height="50" relative="1" as="geometry">
            <mxPoint x="2160" y="480" as="sourcePoint" />
            <mxPoint x="2110" y="480" as="targetPoint" />
          </mxGeometry>
        </mxCell>
        <mxCell id="DxA6hMR1FraLRWYeFAij-7" value="" style="rounded=0;whiteSpace=wrap;html=1;rotation=-90;" vertex="1" parent="1">
          <mxGeometry x="2100" y="494.5" width="120" height="60" as="geometry" />
        </mxCell>
        <mxCell id="DxA6hMR1FraLRWYeFAij-8" value="Rendeles" style="ellipse;whiteSpace=wrap;html=1;" vertex="1" parent="1">
          <mxGeometry x="2965" y="227.5" width="90" height="60" as="geometry" />
        </mxCell>
        <mxCell id="DxA6hMR1FraLRWYeFAij-9" value="etel" style="ellipse;whiteSpace=wrap;html=1;" vertex="1" parent="1">
          <mxGeometry x="3030" y="377.5" width="120" height="80" as="geometry" />
        </mxCell>
        <mxCell id="DxA6hMR1FraLRWYeFAij-10" value="osszeg" style="ellipse;whiteSpace=wrap;html=1;" vertex="1" parent="1">
          <mxGeometry x="2880" y="377.5" width="120" height="80" as="geometry" />
        </mxCell>
        <mxCell id="DxA6hMR1FraLRWYeFAij-11" value="" style="endArrow=none;html=1;rounded=0;entryX=0.5;entryY=1;entryDx=0;entryDy=0;exitX=0.5;exitY=0;exitDx=0;exitDy=0;" edge="1" parent="1" source="DxA6hMR1FraLRWYeFAij-10" target="ROAPfHrgWfZoaQifjzsi-45">
          <mxGeometry width="50" height="50" relative="1" as="geometry">
            <mxPoint x="2370" y="510" as="sourcePoint" />
            <mxPoint x="2420" y="460" as="targetPoint" />
          </mxGeometry>
        </mxCell>
        <mxCell id="DxA6hMR1FraLRWYeFAij-12" value="" style="endArrow=none;html=1;rounded=0;entryX=0.5;entryY=1;entryDx=0;entryDy=0;exitX=0.5;exitY=0;exitDx=0;exitDy=0;" edge="1" parent="1" source="DxA6hMR1FraLRWYeFAij-9" target="ROAPfHrgWfZoaQifjzsi-45">
          <mxGeometry width="50" height="50" relative="1" as="geometry">
            <mxPoint x="2370" y="510" as="sourcePoint" />
            <mxPoint x="2420" y="460" as="targetPoint" />
          </mxGeometry>
        </mxCell>
        <mxCell id="DxA6hMR1FraLRWYeFAij-13" value="" style="endArrow=none;html=1;rounded=0;entryX=0.5;entryY=1;entryDx=0;entryDy=0;exitX=1;exitY=0.5;exitDx=0;exitDy=0;" edge="1" parent="1" source="DxA6hMR1FraLRWYeFAij-15" target="DxA6hMR1FraLRWYeFAij-9">
          <mxGeometry width="50" height="50" relative="1" as="geometry">
            <mxPoint x="3090" y="480" as="sourcePoint" />
            <mxPoint x="2560" y="460" as="targetPoint" />
          </mxGeometry>
        </mxCell>
        <mxCell id="DxA6hMR1FraLRWYeFAij-14" value="" style="endArrow=none;html=1;rounded=0;entryX=0.5;entryY=1;entryDx=0;entryDy=0;exitX=1;exitY=0.5;exitDx=0;exitDy=0;" edge="1" parent="1" source="DxA6hMR1FraLRWYeFAij-16" target="DxA6hMR1FraLRWYeFAij-10">
          <mxGeometry width="50" height="50" relative="1" as="geometry">
            <mxPoint x="2940" y="480" as="sourcePoint" />
            <mxPoint x="2560" y="460" as="targetPoint" />
          </mxGeometry>
        </mxCell>
        <mxCell id="DxA6hMR1FraLRWYeFAij-15" value="" style="rounded=0;whiteSpace=wrap;html=1;rotation=-90;" vertex="1" parent="1">
          <mxGeometry x="3030" y="500" width="120" height="60" as="geometry" />
        </mxCell>
        <mxCell id="DxA6hMR1FraLRWYeFAij-16" value="" style="rounded=0;whiteSpace=wrap;html=1;rotation=-90;" vertex="1" parent="1">
          <mxGeometry x="2880" y="500" width="120" height="60" as="geometry" />
        </mxCell>
        <mxCell id="DxA6hMR1FraLRWYeFAij-18" value="" style="endArrow=none;dashed=1;html=1;dashPattern=1 3;strokeWidth=2;rounded=0;entryX=0.5;entryY=1;entryDx=0;entryDy=0;" edge="1" parent="1" target="ROAPfHrgWfZoaQifjzsi-51">
          <mxGeometry width="50" height="50" relative="1" as="geometry">
            <mxPoint x="2880" y="970" as="sourcePoint" />
            <mxPoint x="2560" y="720" as="targetPoint" />
          </mxGeometry>
        </mxCell>
        <mxCell id="DxA6hMR1FraLRWYeFAij-19" value="" style="endArrow=none;dashed=1;html=1;dashPattern=1 3;strokeWidth=2;rounded=0;" edge="1" parent="1">
          <mxGeometry width="50" height="50" relative="1" as="geometry">
            <mxPoint x="-90" y="960" as="sourcePoint" />
            <mxPoint x="2880" y="970" as="targetPoint" />
          </mxGeometry>
        </mxCell>
        <mxCell id="DxA6hMR1FraLRWYeFAij-20" value="" style="endArrow=none;dashed=1;html=1;dashPattern=1 3;strokeWidth=2;rounded=0;" edge="1" parent="1">
          <mxGeometry width="50" height="50" relative="1" as="geometry">
            <mxPoint x="-90" y="960" as="sourcePoint" />
            <mxPoint x="-90" y="240" as="targetPoint" />
          </mxGeometry>
        </mxCell>
        <mxCell id="DxA6hMR1FraLRWYeFAij-21" value="" style="endArrow=none;dashed=1;html=1;dashPattern=1 3;strokeWidth=2;rounded=0;" edge="1" parent="1">
          <mxGeometry width="50" height="50" relative="1" as="geometry">
            <mxPoint x="170" y="240" as="sourcePoint" />
            <mxPoint x="-90" y="240" as="targetPoint" />
          </mxGeometry>
        </mxCell>
        <mxCell id="DxA6hMR1FraLRWYeFAij-22" value="" style="endArrow=none;dashed=1;html=1;dashPattern=1 3;strokeWidth=2;rounded=0;exitX=0.5;exitY=0;exitDx=0;exitDy=0;" edge="1" parent="1" source="ROAPfHrgWfZoaQifjzsi-8">
          <mxGeometry width="50" height="50" relative="1" as="geometry">
            <mxPoint x="80" y="450" as="sourcePoint" />
            <mxPoint x="170" y="240" as="targetPoint" />
          </mxGeometry>
        </mxCell>
        <mxCell id="DxA6hMR1FraLRWYeFAij-23" value="" style="endArrow=none;dashed=1;html=1;rounded=0;entryX=1;entryY=0;entryDx=0;entryDy=0;" edge="1" parent="1" target="ROAPfHrgWfZoaQifjzsi-8">
          <mxGeometry width="50" height="50" relative="1" as="geometry">
            <mxPoint x="190" y="210" as="sourcePoint" />
            <mxPoint x="130" y="400" as="targetPoint" />
          </mxGeometry>
        </mxCell>
      </root>
    </mxGraphModel>
  </diagram>
</mxfile>
